# xmcd CD database file
#
# Track frame offsets:
#	150
#	14363
#	34920
#	58730
#	78590
#	95305
#	111723
#	126273
#	140475
#	154868
#	171763
#	189420
#	205548
#	222400
#	237810
#	256715
#
# Disc length: 3672 seconds
#
# Revision: 0
# Processed by: cddbd v1.5.1PL0 Copyright (c) Steve Scherf et al.
# Submitted via: CDex 1.51
#
DISCID=df0e5610
DTITLE=Various Artist - 大阪ソウルバラード 番外編
DYEAR=2003
DGENRE=Blues
TTITLE0=大阪ラプソディー/海原千里・万里
TTITLE1=新地ワルツ/レッツゴー三匹
TTITLE2=浪花夢情話（新編　桂春団治）/長山洋子、川藤幸三
TTITLE3=俺は浪花の漫才師/横山やすし
TTITLE4=十三の夜/藤田まこと
TTITLE5=おばちゃんのブルース/笑福亭仁鶴
TTITLE6=釜ヶ崎人情/三音英次
TTITLE7=ジャンジャン横丁/三浦洸一
TTITLE8=河内のオッサンの唄/ミス花子
TTITLE9=宗右衛門町ブルース/平和勝次とダークホース
TTITLE10=負ける気せんね/辛坊治郎、森たけし
TTITLE11=惚れてずぶ濡れ/宮下健治、台詞：笑福亭小松
TTITLE12=大阪ろまん/フランク永井
TTITLE13=若い二人の心斎橋/吉永小百合、三田　明
TTITLE14=あんじょうやりや/オール巨人
TTITLE15=ひらけチューリップ/間　寛平
EXTD=YEAR: 2003
EXTT0=
EXTT1=
EXTT2=
EXTT3=
EXTT4=
EXTT5=
EXTT6=
EXTT7=
EXTT8=
EXTT9=
EXTT10=
EXTT11=
EXTT12=
EXTT13=
EXTT14=
EXTT15=
PLAYORDER=
